<?xml version="1.0" encoding="utf-8"?>
<!-- Generator: Adobe Illustrator 20.1.0, SVG Export Plug-In . SVG Version: 6.00 Build 0)  -->
<svg version="1.1" id="Layer_1" xmlns="http://www.w3.org/2000/svg" xmlns:xlink="http://www.w3.org/1999/xlink" x="0px" y="0px"
	 viewBox="0 0 200 200" style="enable-background:new 0 0 200 200;" xml:space="preserve">
<style type="text/css">
	.st0{fill:#FFFFFF;}
</style>
<g>
	<g>
		<path class="st0" d="M169.1,103.7H30.9V57.6h138.3V103.7z M36.9,97.7h126.2V63.6H36.9V97.7z"/>
		<g>
			<rect x="89.3" y="109.6" class="st0" width="21.4" height="6"/>
			<rect x="55.9" y="109.6" class="st0" width="21.4" height="6"/>
			<rect x="122.7" y="109.6" class="st0" width="21.4" height="6"/>
		</g>
		<rect x="77.3" y="45.6" class="st0" width="45.4" height="6"/>
	</g>
	<g>
		<rect x="97" y="124.6" class="st0" width="6" height="29.3"/>
		<path class="st0" d="M118.4,187.7H81.6v-36.9h36.9C118.4,150.8,118.4,187.7,118.4,187.7z M87.6,181.7h24.8v-24.8H87.6V181.7z"/>
		<rect x="93.3" y="166.3" class="st0" width="13.4" height="6"/>
	</g>
	<g>
		<path class="st0" d="M200,172.3h-36.9v-36.9H200V172.3z M169.1,166.3H194v-24.8h-24.8V166.3z"/>
		<rect x="174.9" y="150.8" class="st0" width="13.4" height="6"/>
		<polygon class="st0" points="166.1,156.9 137.8,156.9 137.8,124.6 143.8,124.6 143.8,150.8 166.1,150.8 		"/>
	</g>
	<g>
		<path class="st0" d="M36.9,172.3H0v-36.9h36.9V172.3z M6,166.3h24.8v-24.8H6V166.3z"/>
		<rect x="11.8" y="150.8" class="st0" width="13.4" height="6"/>
		<polygon class="st0" points="62.2,156.9 33.9,156.9 33.9,150.8 56.2,150.8 56.2,124.6 62.2,124.6 		"/>
	</g>
	<g>
		<path class="st0" d="M169.1,127.6H30.9V33.7h138.3V127.6z M36.9,121.6h126.2V39.7H36.9V121.6z"/>
		<path class="st0" d="M169.1,39.7H30.9V12.3h138.3V39.7z M36.9,33.7h126.2V18.3H36.9V33.7z"/>
		<g>
			<rect x="45.6" y="23" class="st0" width="6" height="6"/>
			<rect x="57.6" y="23" class="st0" width="6" height="6"/>
			<rect x="69.7" y="23" class="st0" width="6" height="6"/>
		</g>
	</g>
</g>
</svg>
