<?xml version="1.0" ?><!DOCTYPE svg  PUBLIC '-//W3C//DTD SVG 1.1//EN'  'http://www.w3.org/Graphics/SVG/1.1/DTD/svg11.dtd'><svg height="64px" style="enable-background:new 0 0 64 64;" version="1.1" viewBox="0 0 64 64" width="64px" xml:space="preserve" xmlns="http://www.w3.org/2000/svg" xmlns:xlink="http://www.w3.org/1999/xlink"><g id="_x30_2_x5F_startup_x5F_launch"><g><path d="M22,54L10,42    c0,0,25-41,53-41C63,29,22,54,22,54z" style="fill:none;stroke:#363F40;stroke-width:2;stroke-linejoin:round;stroke-miterlimit:10;"/><polyline points="20,52 17,55     9,47 12,44   " style="fill:none;stroke:#363F40;stroke-width:2;stroke-linejoin:round;stroke-miterlimit:10;"/><path d="M7,50c-6,6-6,13-6,13    s7,0,13-6" style="fill:none;stroke:#363F40;stroke-width:2;stroke-linejoin:round;stroke-miterlimit:10;"/><circle cx="46" cy="18" r="4" style="fill:none;stroke:#363F40;stroke-width:2;stroke-linejoin:round;stroke-miterlimit:10;"/><circle cx="37" cy="27" r="4" style="fill:none;stroke:#363F40;stroke-width:2;stroke-linejoin:round;stroke-miterlimit:10;"/><circle cx="28" cy="36" r="4" style="fill:none;stroke:#363F40;stroke-width:2;stroke-linejoin:round;stroke-miterlimit:10;"/><polyline points="54,25 37,63     27,63 27,55   " style="fill:none;stroke:#363F40;stroke-width:2;stroke-linejoin:round;stroke-miterlimit:10;"/><polyline points="39,10 1,27 1,37     9,37   " style="fill:none;stroke:#363F40;stroke-width:2;stroke-linejoin:round;stroke-miterlimit:10;"/><path d="M61,11    c-4.418,0-8-3.582-8-8" style="fill:none;stroke:#363F40;stroke-width:2;stroke-linejoin:round;stroke-miterlimit:10;"/></g></g><g id="Layer_1"/></svg>